<?xml version='1.0' encoding='UTF-8'?>
<svg width="74mm" height="74mm" version="1.1" viewBox="0 0 74 74" xmlns="http://www.w3.org/2000/svg"><path d="M4,4H6V6H4zM6,4H8V6H6zM8,4H10V6H8zM10,4H12V6H10zM12,4H14V6H12zM14,4H16V6H14zM16,4H18V6H16zM24,4H26V6H24zM26,4H28V6H26zM32,4H34V6H32zM36,4H38V6H36zM40,4H42V6H40zM42,4H44V6H42zM44,4H46V6H44zM46,4H48V6H46zM48,4H50V6H48zM50,4H52V6H50zM56,4H58V6H56zM58,4H60V6H58zM60,4H62V6H60zM62,4H64V6H62zM64,4H66V6H64zM66,4H68V6H66zM68,4H70V6H68zM4,6H6V8H4zM16,6H18V8H16zM24,6H26V8H24zM26,6H28V8H26zM28,6H30V8H28zM34,6H36V8H34zM36,6H38V8H36zM40,6H42V8H40zM44,6H46V8H44zM46,6H48V8H46zM52,6H54V8H52zM56,6H58V8H56zM68,6H70V8H68zM4,8H6V10H4zM8,8H10V10H8zM10,8H12V10H10zM12,8H14V10H12zM16,8H18V10H16zM20,8H22V10H20zM22,8H24V10H22zM24,8H26V10H24zM32,8H34V10H32zM34,8H36V10H34zM42,8H44V10H42zM46,8H48V10H46zM48,8H50V10H48zM50,8H52V10H50zM52,8H54V10H52zM56,8H58V10H56zM60,8H62V10H60zM62,8H64V10H62zM64,8H66V10H64zM68,8H70V10H68zM4,10H6V12H4zM8,10H10V12H8zM10,10H12V12H10zM12,10H14V12H12zM16,10H18V12H16zM20,10H22V12H20zM24,10H26V12H24zM26,10H28V12H26zM28,10H30V12H28zM40,10H42V12H40zM46,10H48V12H46zM52,10H54V12H52zM56,10H58V12H56zM60,10H62V12H60zM62,10H64V12H62zM64,10H66V12H64zM68,10H70V12H68zM4,12H6V14H4zM8,12H10V14H8zM10,12H12V14H10zM12,12H14V14H12zM16,12H18V14H16zM20,12H22V14H20zM24,12H26V14H24zM32,12H34V14H32zM34,12H36V14H34zM36,12H38V14H36zM38,12H40V14H38zM44,12H46V14H44zM48,12H50V14H48zM56,12H58V14H56zM60,12H62V14H60zM62,12H64V14H62zM64,12H66V14H64zM68,12H70V14H68zM4,14H6V16H4zM16,14H18V16H16zM20,14H22V16H20zM22,14H24V16H22zM26,14H28V16H26zM30,14H32V16H30zM38,14H40V16H38zM42,14H44V16H42zM46,14H48V16H46zM50,14H52V16H50zM52,14H54V16H52zM56,14H58V16H56zM68,14H70V16H68zM4,16H6V18H4zM6,16H8V18H6zM8,16H10V18H8zM10,16H12V18H10zM12,16H14V18H12zM14,16H16V18H14zM16,16H18V18H16zM20,16H22V18H20zM24,16H26V18H24zM28,16H30V18H28zM32,16H34V18H32zM36,16H38V18H36zM40,16H42V18H40zM44,16H46V18H44zM48,16H50V18H48zM52,16H54V18H52zM56,16H58V18H56zM58,16H60V18H58zM60,16H62V18H60zM62,16H64V18H62zM64,16H66V18H64zM66,16H68V18H66zM68,16H70V18H68zM20,18H22V20H20zM22,18H24V20H22zM24,18H26V20H24zM28,18H30V20H28zM36,18H38V20H36zM42,18H44V20H42zM44,18H46V20H44zM46,18H48V20H46zM48,18H50V20H48zM50,18H52V20H50zM4,20H6V22H4zM8,20H10V22H8zM10,20H12V22H10zM12,20H14V22H12zM14,20H16V22H14zM16,20H18V22H16zM22,20H24V22H22zM28,20H30V22H28zM30,20H32V22H30zM38,20H40V22H38zM42,20H44V22H42zM44,20H46V22H44zM50,20H52V22H50zM56,20H58V22H56zM58,20H60V22H58zM60,20H62V22H60zM62,20H64V22H62zM64,20H66V22H64zM8,22H10V24H8zM10,22H12V24H10zM12,22H14V24H12zM14,22H16V24H14zM18,22H20V24H18zM26,22H28V24H26zM28,22H30V24H28zM30,22H32V24H30zM36,22H38V24H36zM38,22H40V24H38zM40,22H42V24H40zM42,22H44V24H42zM44,22H46V24H44zM50,22H52V24H50zM56,22H58V24H56zM58,22H60V24H58zM62,22H64V24H62zM64,22H66V24H64zM66,22H68V24H66zM68,22H70V24H68zM10,24H12V26H10zM14,24H16V26H14zM16,24H18V26H16zM18,24H20V26H18zM22,24H24V26H22zM24,24H26V26H24zM28,24H30V26H28zM30,24H32V26H30zM32,24H34V26H32zM34,24H36V26H34zM38,24H40V26H38zM48,24H50V26H48zM52,24H54V26H52zM54,24H56V26H54zM56,24H58V26H56zM60,24H62V26H60zM64,24H66V26H64zM66,24H68V26H66zM6,26H8V28H6zM8,26H10V28H8zM10,26H12V28H10zM18,26H20V28H18zM20,26H22V28H20zM22,26H24V28H22zM24,26H26V28H24zM26,26H28V28H26zM28,26H30V28H28zM30,26H32V28H30zM36,26H38V28H36zM38,26H40V28H38zM40,26H42V28H40zM42,26H44V28H42zM44,26H46V28H44zM56,26H58V28H56zM60,26H62V28H60zM62,26H64V28H62zM64,26H66V28H64zM6,28H8V30H6zM10,28H12V30H10zM12,28H14V30H12zM14,28H16V30H14zM16,28H18V30H16zM20,28H22V30H20zM22,28H24V30H22zM32,28H34V30H32zM36,28H38V30H36zM42,28H44V30H42zM44,28H46V30H44zM46,28H48V30H46zM48,28H50V30H48zM52,28H54V30H52zM54,28H56V30H54zM58,28H60V30H58zM60,28H62V30H60zM62,28H64V30H62zM6,30H8V32H6zM8,30H10V32H8zM10,30H12V32H10zM12,30H14V32H12zM22,30H24V32H22zM24,30H26V32H24zM34,30H36V32H34zM40,30H42V32H40zM52,30H54V32H52zM56,30H58V32H56zM64,30H66V32H64zM66,30H68V32H66zM68,30H70V32H68zM4,32H6V34H4zM8,32H10V34H8zM10,32H12V34H10zM14,32H16V34H14zM16,32H18V34H16zM22,32H24V34H22zM26,32H28V34H26zM34,32H36V34H34zM36,32H38V34H36zM38,32H40V34H38zM44,32H46V34H44zM48,32H50V34H48zM52,32H54V34H52zM54,32H56V34H54zM56,32H58V34H56zM60,32H62V34H60zM64,32H66V34H64zM66,32H68V34H66zM4,34H6V36H4zM6,34H8V36H6zM14,34H16V36H14zM22,34H24V36H22zM24,34H26V36H24zM30,34H32V36H30zM34,34H36V36H34zM40,34H42V36H40zM46,34H48V36H46zM54,34H56V36H54zM56,34H58V36H56zM64,34H66V36H64zM6,36H8V38H6zM8,36H10V38H8zM12,36H14V38H12zM14,36H16V38H14zM16,36H18V38H16zM20,36H22V38H20zM22,36H24V38H22zM24,36H26V38H24zM26,36H28V38H26zM28,36H30V38H28zM30,36H32V38H30zM34,36H36V38H34zM38,36H40V38H38zM48,36H50V38H48zM54,36H56V38H54zM58,36H60V38H58zM60,36H62V38H60zM68,36H70V38H68zM6,38H8V40H6zM8,38H10V40H8zM12,38H14V40H12zM14,38H16V40H14zM18,38H20V40H18zM24,38H26V40H24zM26,38H28V40H26zM30,38H32V40H30zM42,38H44V40H42zM44,38H46V40H44zM46,38H48V40H46zM48,38H50V40H48zM50,38H52V40H50zM54,38H56V40H54zM56,38H58V40H56zM58,38H60V40H58zM62,38H64V40H62zM64,38H66V40H64zM66,38H68V40H66zM68,38H70V40H68zM4,40H6V42H4zM10,40H12V42H10zM14,40H16V42H14zM16,40H18V42H16zM18,40H20V42H18zM32,40H34V42H32zM34,40H36V42H34zM36,40H38V42H36zM40,40H42V42H40zM44,40H46V42H44zM46,40H48V42H46zM54,40H56V42H54zM56,40H58V42H56zM58,40H60V42H58zM60,40H62V42H60zM64,40H66V42H64zM66,40H68V42H66zM4,42H6V44H4zM8,42H10V44H8zM14,42H16V44H14zM18,42H20V44H18zM22,42H24V44H22zM24,42H26V44H24zM28,42H30V44H28zM32,42H34V44H32zM36,42H38V44H36zM46,42H48V44H46zM48,42H50V44H48zM50,42H52V44H50zM52,42H54V44H52zM58,42H60V44H58zM60,42H62V44H60zM62,42H64V44H62zM64,42H66V44H64zM66,42H68V44H66zM6,44H8V46H6zM8,44H10V46H8zM10,44H12V46H10zM12,44H14V46H12zM14,44H16V46H14zM16,44H18V46H16zM18,44H20V46H18zM20,44H22V46H20zM26,44H28V46H26zM30,44H32V46H30zM32,44H34V46H32zM40,44H42V46H40zM46,44H48V46H46zM52,44H54V46H52zM54,44H56V46H54zM60,44H62V46H60zM62,44H64V46H62zM4,46H6V48H4zM6,46H8V48H6zM8,46H10V48H8zM10,46H12V48H10zM14,46H16V48H14zM18,46H20V48H18zM22,46H24V48H22zM26,46H28V48H26zM28,46H30V48H28zM34,46H36V48H34zM36,46H38V48H36zM44,46H46V48H44zM46,46H48V48H46zM48,46H50V48H48zM50,46H52V48H50zM56,46H58V48H56zM62,46H64V48H62zM68,46H70V48H68zM4,48H6V50H4zM10,48H12V50H10zM14,48H16V50H14zM16,48H18V50H16zM20,48H22V50H20zM26,48H28V50H26zM28,48H30V50H28zM32,48H34V50H32zM42,48H44V50H42zM60,48H62V50H60zM62,48H64V50H62zM66,48H68V50H66zM4,50H6V52H4zM8,50H10V52H8zM10,50H12V52H10zM12,50H14V52H12zM18,50H20V52H18zM22,50H24V52H22zM28,50H30V52H28zM32,50H34V52H32zM36,50H38V52H36zM40,50H42V52H40zM42,50H44V52H42zM44,50H46V52H44zM46,50H48V52H46zM48,50H50V52H48zM52,50H54V52H52zM60,50H62V52H60zM62,50H64V52H62zM64,50H66V52H64zM66,50H68V52H66zM68,50H70V52H68zM4,52H6V54H4zM10,52H12V54H10zM16,52H18V54H16zM18,52H20V54H18zM22,52H24V54H22zM24,52H26V54H24zM28,52H30V54H28zM30,52H32V54H30zM38,52H40V54H38zM42,52H44V54H42zM48,52H50V54H48zM52,52H54V54H52zM54,52H56V54H54zM56,52H58V54H56zM58,52H60V54H58zM60,52H62V54H60zM64,52H66V54H64zM68,52H70V54H68zM20,54H22V56H20zM22,54H24V56H22zM26,54H28V56H26zM30,54H32V56H30zM36,54H38V56H36zM38,54H40V56H38zM42,54H44V56H42zM44,54H46V56H44zM50,54H52V56H50zM52,54H54V56H52zM60,54H62V56H60zM64,54H66V56H64zM4,56H6V58H4zM6,56H8V58H6zM8,56H10V58H8zM10,56H12V58H10zM12,56H14V58H12zM14,56H16V58H14zM16,56H18V58H16zM28,56H30V58H28zM30,56H32V58H30zM34,56H36V58H34zM38,56H40V58H38zM48,56H50V58H48zM50,56H52V58H50zM52,56H54V58H52zM56,56H58V58H56zM60,56H62V58H60zM64,56H66V58H64zM66,56H68V58H66zM4,58H6V60H4zM16,58H18V60H16zM20,58H22V60H20zM30,58H32V60H30zM32,58H34V60H32zM38,58H40V60H38zM40,58H42V60H40zM42,58H44V60H42zM50,58H52V60H50zM52,58H54V60H52zM60,58H62V60H60zM62,58H64V60H62zM64,58H66V60H64zM66,58H68V60H66zM68,58H70V60H68zM4,60H6V62H4zM8,60H10V62H8zM10,60H12V62H10zM12,60H14V62H12zM16,60H18V62H16zM20,60H22V62H20zM22,60H24V62H22zM24,60H26V62H24zM26,60H28V62H26zM30,60H32V62H30zM34,60H36V62H34zM36,60H38V62H36zM44,60H46V62H44zM46,60H48V62H46zM48,60H50V62H48zM52,60H54V62H52zM54,60H56V62H54zM56,60H58V62H56zM58,60H60V62H58zM60,60H62V62H60zM62,60H64V62H62zM66,60H68V62H66zM68,60H70V62H68zM4,62H6V64H4zM8,62H10V64H8zM10,62H12V64H10zM12,62H14V64H12zM16,62H18V64H16zM20,62H22V64H20zM22,62H24V64H22zM24,62H26V64H24zM28,62H30V64H28zM30,62H32V64H30zM32,62H34V64H32zM34,62H36V64H34zM40,62H42V64H40zM50,62H52V64H50zM52,62H54V64H52zM54,62H56V64H54zM60,62H62V64H60zM62,62H64V64H62zM64,62H66V64H64zM68,62H70V64H68zM4,64H6V66H4zM8,64H10V66H8zM10,64H12V66H10zM12,64H14V66H12zM16,64H18V66H16zM20,64H22V66H20zM24,64H26V66H24zM26,64H28V66H26zM28,64H30V66H28zM34,64H36V66H34zM36,64H38V66H36zM40,64H42V66H40zM44,64H46V66H44zM48,64H50V66H48zM52,64H54V66H52zM56,64H58V66H56zM58,64H60V66H58zM64,64H66V66H64zM4,66H6V68H4zM16,66H18V68H16zM24,66H26V68H24zM26,66H28V68H26zM28,66H30V68H28zM32,66H34V68H32zM34,66H36V68H34zM40,66H42V68H40zM46,66H48V68H46zM48,66H50V68H48zM54,66H56V68H54zM56,66H58V68H56zM60,66H62V68H60zM62,66H64V68H62zM64,66H66V68H64zM4,68H6V70H4zM6,68H8V70H6zM8,68H10V70H8zM10,68H12V70H10zM12,68H14V70H12zM14,68H16V70H14zM16,68H18V70H16zM20,68H22V70H20zM22,68H24V70H22zM24,68H26V70H24zM28,68H30V70H28zM34,68H36V70H34zM36,68H38V70H36zM38,68H40V70H38zM44,68H46V70H44zM48,68H50V70H48zM50,68H52V70H50zM52,68H54V70H52zM54,68H56V70H54zM56,68H58V70H56zM58,68H60V70H58zM66,68H68V70H66z" id="qr-path" fill="#000000" fill-opacity="1" fill-rule="nonzero" stroke="none" /></svg>